<svg xmlns="http://www.w3.org/2000/svg" viewBox="0 0 385.76 219.78"><defs><style>.cls-1{fill:#ee3424;}.cls-1,.cls-2,.cls-3{fill-rule:evenodd;}.cls-2{fill:#f7ec13;}.cls-3{fill:#68bd45;}.cls-4{font-size:48px;font-family:Humanist521BT-Light, Humanst521 Lt BT;font-weight:300;}.cls-5{letter-spacing:-0.04em;}.cls-6{letter-spacing:-0.02em;}</style></defs><g id="Layer_1" data-name="Layer 1"><path class="cls-1" d="M218.58,330.37c-7.48,6.15-15,12.27-21.8,18.43-6.8,6.8-12.95,13.6-17,21.79-2,4.09-3.4,7.49-3.4,11.6a19.19,19.19,0,0,0,2.72,10.2c4.09,6.15,13,10.24,22.48,12.28,18.4,4.08,38.84,3.4,57.94-.68,19.76-3.41,38.84-10.24,56.55-19.08a233.43,233.43,0,0,1-55.19,23.84c-19.75,5.47-40.22,8.19-61.34,5.47a60.22,60.22,0,0,1-15.67-4.11,34.91,34.91,0,0,1-14.32-10.21,28.79,28.79,0,0,1-6.8-17.71,51.17,51.17,0,0,1,3.4-17.72c4.08-10.91,10.91-19.1,17.72-27.27s14.31-15,21.8-22.48Z" transform="translate(-102 -286.54)"/><path class="cls-2" d="M342.62,354.24c7.49,12.27,13.64,25.2,20.44,37.47,6.12,12.28,13,24.55,19.76,36.8a190.32,190.32,0,0,0,24.55,33.39c9.52,9.55,21.12,17.71,35.43,19.1-14.31.68-27.95-6.15-38.86-15s-20.44-19.79-29.28-31.35c-17.72-22.51-32-47-48.39-68.15Z" transform="translate(-102 -286.54)"/><path class="cls-1" d="M352.83,407.39c8.19,15.67,16.35,30.67,25.91,45,10.2,13.64,21.8,26.56,38.15,31.35a45.48,45.48,0,0,0,25.23-1.36,64.51,64.51,0,0,0,21.8-12.95c12.27-12.27,19.76-29.31,23.84-46.35-3.4,17-9.53,34.76-21.8,47.71a60.18,60.18,0,0,1-49.75,18.4c-9.52-.68-18.4-4.77-25.88-10.24a180,180,0,0,1-21.15-17.71C356.26,448.29,346,433.3,335.11,419Z" transform="translate(-102 -286.54)"/><path class="cls-3" d="M107.52,446.22c3.4-32,10.88-64.71,25.2-94.7,7.51-15,16.35-28.63,28.63-40.91,12.27-11.56,27.27-21.8,45.66-23.84,17.72-1.36,34.76,3.4,49.75,12.28a153.2,153.2,0,0,1,38.16,31.35,200.53,200.53,0,0,1,15,19.08c2.72,3.4,4.76,6.8,6.8,9.52,2.05,3.43,4.12,6.83,6.16,10.23,7.48,14.32,14.31,28.63,21.11,42.95-9.55-13-18.39-25.91-28-38.18q-7.14-9.19-14.31-18.4a185.88,185.88,0,0,0-15-17.72c-10.91-10.91-22.5-21.12-35.46-27.95s-27.92-10.2-41.55-8.84c-13.64,2-25.91,10.2-36.12,21.12a137.57,137.57,0,0,0-24.55,37.47c-12.24,27.27-18.39,57.94-20.43,88.61Z" transform="translate(-102 -286.54)"/><path class="cls-1" d="M218.58,330.37c-7.48,6.15-15,12.27-21.8,18.43-6.8,6.8-12.95,13.6-17,21.79-2,4.09-3.4,7.49-3.4,11.6a19.19,19.19,0,0,0,2.72,10.2c4.09,6.15,13,10.24,22.48,12.28,18.4,4.08,38.84,3.4,57.94-.68,19.76-3.41,38.84-10.24,56.55-19.08a233.43,233.43,0,0,1-55.19,23.84c-19.75,5.47-40.22,8.19-61.34,5.47a60.22,60.22,0,0,1-15.67-4.11,34.91,34.91,0,0,1-14.32-10.21,28.79,28.79,0,0,1-6.8-17.71,51.17,51.17,0,0,1,3.4-17.72c4.08-10.91,10.91-19.1,17.72-27.27s14.31-15,21.8-22.48Z" transform="translate(-102 -286.54)"/><path class="cls-2" d="M342.62,354.24c7.49,12.27,13.64,25.2,20.44,37.47,6.12,12.28,13,24.55,19.76,36.8a190.32,190.32,0,0,0,24.55,33.39c9.52,9.55,21.12,17.71,35.43,19.1-14.31.68-27.95-6.15-38.86-15s-20.44-19.79-29.28-31.35c-17.72-22.51-32-47-48.39-68.15Z" transform="translate(-102 -286.54)"/><path class="cls-1" d="M352.83,407.39c8.19,15.67,16.35,30.67,25.91,45,10.2,13.64,21.8,26.56,38.15,31.35a45.48,45.48,0,0,0,25.23-1.36,64.51,64.51,0,0,0,21.8-12.95c12.27-12.27,19.76-29.31,23.84-46.35-3.4,17-9.53,34.76-21.8,47.71a60.18,60.18,0,0,1-49.75,18.4c-9.52-.68-18.4-4.77-25.88-10.24a180,180,0,0,1-21.15-17.71C356.26,448.29,346,433.3,335.11,419Z" transform="translate(-102 -286.54)"/><path class="cls-3" d="M107.52,446.22c3.4-32,10.88-64.71,25.2-94.7,7.51-15,16.35-28.63,28.63-40.91,12.27-11.56,27.27-21.8,45.66-23.84,17.72-1.36,34.76,3.4,49.75,12.28a153.2,153.2,0,0,1,38.16,31.35,200.53,200.53,0,0,1,15,19.08c2.72,3.4,4.76,6.8,6.8,9.52,2.05,3.43,4.12,6.83,6.16,10.23,7.48,14.32,14.31,28.63,21.11,42.95-9.55-13-18.39-25.91-28-38.18q-7.14-9.19-14.31-18.4a185.88,185.88,0,0,0-15-17.72c-10.91-10.91-22.5-21.12-35.46-27.95s-27.92-10.2-41.55-8.84c-13.64,2-25.91,10.2-36.12,21.12a137.57,137.57,0,0,0-24.55,37.47c-12.24,27.27-18.39,57.94-20.43,88.61Z" transform="translate(-102 -286.54)"/><path class="cls-3" d="M107.52,446.22c3.4-32,10.88-64.71,25.2-94.7,7.51-15,16.35-28.63,28.63-40.91,12.27-11.56,27.27-21.8,45.66-23.84,17.72-1.36,34.76,3.4,49.75,12.28a153.2,153.2,0,0,1,38.16,31.35,200.53,200.53,0,0,1,15,19.08c2.72,3.4,4.76,6.8,6.8,9.52,2.05,3.43,4.12,6.83,6.16,10.23,7.48,14.32,14.31,28.63,21.11,42.95-9.55-13-18.39-25.91-28-38.18q-7.14-9.19-14.31-18.4a185.88,185.88,0,0,0-15-17.72c-10.91-10.91-22.5-21.12-35.46-27.95s-27.92-10.2-41.55-8.84c-13.64,2-25.91,10.2-36.12,21.12a137.57,137.57,0,0,0-24.55,37.47c-12.24,27.27-18.39,57.94-20.43,88.61Z" transform="translate(-102 -286.54)"/><path class="cls-3" d="M107.52,446.22c3.4-32,10.88-64.71,25.2-94.7,7.51-15,16.35-28.63,28.63-40.91,12.27-11.56,27.27-21.8,45.66-23.84,17.72-1.36,34.76,3.4,49.75,12.28a153.2,153.2,0,0,1,38.16,31.35,200.53,200.53,0,0,1,15,19.08c2.72,3.4,4.76,6.8,6.8,9.52,2.05,3.43,4.12,6.83,6.16,10.23,7.48,14.32,14.31,28.63,21.11,42.95-9.55-13-18.39-25.91-28-38.18q-7.14-9.19-14.31-18.4a185.88,185.88,0,0,0-15-17.72c-10.91-10.91-22.5-21.12-35.46-27.95s-27.92-10.2-41.55-8.84c-13.64,2-25.91,10.2-36.12,21.12a137.57,137.57,0,0,0-24.55,37.47c-12.24,27.27-18.39,57.94-20.43,88.61Z" transform="translate(-102 -286.54)"/><text class="cls-4" transform="translate(0 208.46)"><tspan class="cls-5">F</tspan><tspan x="19.73" y="0">ord and </tspan><tspan class="cls-6" x="175.36" y="0">L</tspan><tspan x="197.23" y="0">ord</tspan></text></g></svg>